<?xml version="1.0" standalone="no"?>
<!DOCTYPE svg PUBLIC "-//W3C//DTD SVG 20010904//EN"
 "http://www.w3.org/TR/2001/REC-SVG-20010904/DTD/svg10.dtd">
<svg version="1.0" xmlns="http://www.w3.org/2000/svg"
 width="1024.000000pt" height="1024.000000pt" viewBox="0 0 1024.000000 1024.000000"
 preserveAspectRatio="xMidYMid meet">
<metadata>
Created by potrace 1.14, written by Peter Selinger 2001-2017
</metadata>
<g transform="translate(0.000000,1024.000000) scale(0.100000,-0.100000)"
fill="#000000" stroke="none">
<path d="M4852 10230 c-823 -49 -1568 -268 -2272 -668 -583 -331 -1143 -826
-1561 -1382 -515 -685 -868 -1554 -973 -2400 -41 -329 -53 -774 -27 -1060 68
-784 282 -1476 659 -2140 331 -583 826 -1143 1382 -1561 612 -461 1378 -795
2140 -933 506 -92 1053 -106 1580 -40 846 105 1715 458 2400 973 381 287 754
660 1041 1041 461 612 795 1378 933 2140 92 506 106 1053 40 1580 -105 846
-458 1715 -973 2400 -287 381 -660 754 -1041 1041 -685 515 -1555 868 -2400
973 -294 36 -672 51 -928 36z m-612 -2200 l0 -290 290 0 290 0 0 -290 0 -290
290 0 290 0 0 580 0 580 295 0 295 0 0 -290 0 -290 1165 0 1165 0 0 -295 0
-295 -1455 0 -1455 0 0 -290 0 -290 1455 0 1455 0 0 -2045 0 -2045 -290 0
-290 0 0 -290 0 -290 -295 0 -295 0 0 290 0 290 -1455 0 -1455 0 0 -290 0
-290 -295 0 -295 0 0 290 0 290 -875 0 -875 0 0 2630 0 2630 875 0 875 0 0
290 0 290 295 0 295 0 0 -290z"/>
<path d="M3660 6860 l0 -870 290 0 290 0 0 -290 0 -290 290 0 290 0 0 -295 0
-295 -295 0 -295 0 0 290 0 290 -285 0 -285 0 0 -1455 0 -1455 285 0 285 0 0
290 0 290 295 0 295 0 0 875 0 875 290 0 290 0 0 580 0 580 -290 0 -290 0 0
585 0 585 -295 0 -295 0 0 290 0 290 -285 0 -285 0 0 -870z"/>
<path d="M2490 5110 l0 -2040 290 0 290 0 0 2040 0 2040 -290 0 -290 0 0
-2040z"/>
<path d="M5990 5400 l0 -580 290 0 290 0 0 295 0 295 293 -2 292 -3 3 -292 2
-293 285 0 285 0 0 580 0 580 -870 0 -870 0 0 -580z"/>
<path d="M5410 3650 l0 -580 580 0 580 0 0 295 0 295 293 -2 292 -3 3 -292 2
-293 285 0 285 0 0 580 0 580 -1160 0 -1160 0 0 -580z"/>
</g>
</svg>
