<?xml version="1.0" standalone="no"?>
<!DOCTYPE svg PUBLIC "-//W3C//DTD SVG 20010904//EN"
 "http://www.w3.org/TR/2001/REC-SVG-20010904/DTD/svg10.dtd">
<svg version="1.0" xmlns="http://www.w3.org/2000/svg"
 width="567.000000pt" height="567.000000pt" viewBox="0 0 567.000000 567.000000"
 preserveAspectRatio="xMidYMid meet">
<metadata>
Created by potrace 1.11, written by Peter Selinger 2001-2013
</metadata>
<g transform="translate(0.000000,567.000000) scale(0.100000,-0.100000)"
fill="#000000" stroke="none">
<path d="M0 2835 l0 -2835 2835 0 2835 0 0 2835 0 2835 -2835 0 -2835 0 0
-2835z m3320 1486 c0 -4 -11 -63 -25 -131 -14 -68 -25 -129 -25 -136 0 -12 67
-14 390 -14 l390 0 0 -200 0 -200 -432 -2 -432 -3 -8 -40 c-4 -22 -10 -50 -13
-62 l-5 -23 445 0 445 0 0 -410 0 -410 40 0 40 0 0 -200 0 -200 -40 0 -40 0 0
-480 0 -480 -243 0 c-134 0 -246 3 -250 6 -3 4 12 31 33 62 22 30 40 61 40 69
0 11 -69 13 -375 13 l-375 0 0 405 0 405 -35 0 -35 0 0 200 0 200 35 0 35 0 0
375 0 375 -60 0 -60 0 0 -230 0 -230 -210 0 -210 0 0 260 0 260 209 0 c150 0
210 -3 213 -12 2 -6 40 181 83 415 l80 427 197 0 c109 0 198 -4 198 -9z m-562
-378 l-3 -258 -205 0 -205 0 -3 258 -2 257 210 0 210 0 -2 -257z m-498 -953
l0 -1120 -362 2 -363 3 -2 1109 c-2 609 0 1112 3 1117 3 5 167 9 365 9 l359 0
0 -1120z m500 -227 c0 -65 -39 -1192 -46 -1310 l-6 -113 -214 0 c-197 0 -214
1 -214 18 0 9 14 314 30 677 16 363 30 684 30 713 l0 52 210 0 210 0 0 -37z"/>
<path d="M3290 2910 l0 -220 170 0 170 0 0 220 0 220 -170 0 -170 0 0 -220z
m270 -5 l0 -155 -100 0 -100 0 0 155 0 155 100 0 100 0 0 -155z"/>
<path d="M3290 2070 l0 -220 170 0 170 0 0 220 0 220 -170 0 -170 0 0 -220z
m270 -2 l0 -153 -100 3 -100 3 0 150 0 149 100 0 100 0 0 -152z"/>
<path d="M1860 2995 l0 -595 35 0 35 0 0 595 0 595 -35 0 -35 0 0 -595z"/>
</g>
</svg>
